<!-- Generated by IcoMoon.io -->
<svg version="1.1" xmlns="http://www.w3.org/2000/svg" width="1184" height="1024" viewBox="0 0 1184 1024">
<g id="icomoon-ignore">
</g>
<path fill="#57686f" d="M535.676 963.034c-15.39-19.533-25.452-40.842-82.867-178.756-126.076-301.873-195.329-460.504-201.84-462.872-3.551-1.184-10.654 8.879-15.982 21.901-11.246 29.003-21.901 30.779-21.901 2.96 0-14.798 2.368-20.717 9.471-20.717 10.654 0 8.879-7.103-17.165-69.845-10.654-26.044-22.492-45.577-29.003-47.945-10.654-4.143-10.654-4.735 1.184-20.125 10.654-13.614 11.838-20.717 8.879-47.945-4.143-29.595-2.96-33.739 10.654-47.353 10.062-9.471 21.901-15.39 33.147-15.39 32.555 0 45.577 8.879 60.375 43.801 14.798 33.739 20.717 39.658 26.636 24.268 5.327-13.022 12.43-10.654 16.573 4.735 1.776 7.695 21.901 58.599 45.577 113.646 23.084 55.639 45.577 111.871 49.72 124.892 7.695 23.676 7.695 24.86-4.143 21.309-10.654-2.368-11.838-1.184-8.879 11.838 2.368 7.695 10.654 29.595 19.533 48.536 13.614 29.595 17.165 33.739 29.003 30.779s15.39 1.776 38.474 60.375c13.614 34.923 31.371 76.356 39.066 92.338 17.165 35.514 17.757 43.801 2.96 46.169-10.654 1.776-10.654 4.143 5.327 43.209 8.879 22.492 18.941 42.025 22.492 43.209 5.919 1.776 36.698-71.029 36.698-87.010 0-4.735-3.551-6.511-8.879-4.143-15.982 5.919-8.287-18.941 32.555-105.951 6.511-13.022 18.941-44.985 29.003-71.029 9.471-26.044 24.268-63.334 32.555-82.867 25.452-57.415 35.514-81.091 60.375-145.017 11.246-27.82 20.125-56.231 20.125-63.334 0-8.287 3.551-13.614 8.879-13.614 4.735 0 8.879 4.143 8.879 8.879 0 22.492 17.165 4.735 31.963-33.739 35.514-90.562 60.375-116.014 100.624-104.176 21.901 7.103 33.147 24.86 33.147 50.904 0 8.879 3.551 21.901 8.287 28.412 7.695 10.654 5.327 18.349-17.757 73.397-23.676 55.639-25.452 64.518-21.901 94.113l3.551 33.147-12.43-11.246c-7.103-5.919-11.246-13.614-9.471-15.982 1.776-2.96 0-5.327-3.551-5.327s-5.327-2.368-2.96-5.327c1.776-2.96 0.592-7.103-2.368-8.879-9.471-6.511-8.879-7.695-131.403 289.443-133.771 323.773-141.466 340.347-161.591 358.696-26.044 23.676-51.496 23.084-71.621-2.368z"></path>
<path fill="#8ab5c3" d="M166.326 943.501c-17.757-22.492-63.334-118.382-76.948-162.183-41.434-133.179-40.25-306.016 2.96-427.357 21.309-58.007 62.742-139.098 84.643-163.958l17.165-20.125 10.062 23.084c23.676 55.047 44.393 108.319 44.393 113.646 0 3.551-8.287 24.268-18.349 46.761-38.474 85.827-48.536 131.995-49.128 229.66-0.592 98.849 7.103 141.466 38.474 220.782 18.349 44.393 18.349 46.761 11.838 87.010-3.551 22.492-10.654 47.353-15.982 54.455-11.838 18.349-33.739 17.165-49.128-1.776z"></path>
<path fill="#8ab5c3" d="M923.968 950.603c-4.143-4.735-10.654-26.044-14.206-46.761-5.919-37.882-5.919-39.066 17.757-99.44 34.331-87.010 40.25-118.973 39.658-221.373-0.592-78.724-2.368-94.705-15.982-140.282-8.879-28.412-24.86-71.029-35.514-94.705l-20.125-43.209 26.636-62.15c14.206-34.331 27.82-66.886 29.003-72.805 1.776-5.327 5.327-10.062 8.287-10.062 14.798 0 91.154 143.242 110.687 207.168 55.639 182.308 32.555 387.108-62.742 550.474-21.901 37.882-22.492 38.474-49.128 40.25-18.349 1.184-29.595-1.184-34.331-7.103z"></path>
<path fill="#bfb6af" d="M534.492 691.348c-5.919-8.879-20.717-42.617-54.455-124.892l-23.676-58.599 18.349-15.39c45.577-37.882 47.945-40.842 44.393-49.72-1.776-5.327-12.43-11.246-23.084-13.614s-33.739-8.287-50.904-13.614c-35.514-10.654-31.371-3.551-95.889-162.183l-37.882-92.929 13.614-29.595c18.349-38.474 48.536-66.886 92.338-87.602 29.595-13.614 43.209-16.573 82.867-16.573 41.434 0 52.088 2.368 83.459 18.941 19.533 10.062 44.393 28.412 54.455 39.658 10.062 11.838 21.309 21.309 24.86 21.309 2.96 0 5.919 2.368 5.919 5.327s-14.206 6.511-31.963 7.695c-60.966 5.327-123.117 53.864-123.117 96.481 0 31.963 50.904 77.54 69.253 62.15 13.022-10.654 11.246-15.39-11.838-29.003-17.165-10.062-20.717-15.39-20.717-32.555 0-13.022 5.327-26.636 14.206-37.29 12.43-14.798 18.941-16.573 58.599-18.349 78.132-4.143 110.687 16.573 110.687 71.029 0 39.066-9.471 59.191-52.68 110.095-40.25 47.945-53.864 71.029-53.864 91.154 0 14.798 26.636 58.007 35.514 58.007 2.96 0 9.471 5.919 14.798 13.614 8.287 12.43 7.103 17.165-9.471 60.375-9.471 26.044-20.125 49.72-22.492 53.272-2.368 2.96-10.654 20.717-17.757 39.658-9.471 22.492-17.165 34.331-26.044 36.698-22.492 5.919-61.558 3.551-67.477-3.551z"></path>
<path fill="#bfb6af" d="M682.469 467.607c-11.838-4.735-13.614-10.062-13.614-36.106 0-24.268 3.551-34.923 18.941-56.231 17.165-23.676 20.717-26.044 44.393-26.044h25.452l-8.287 19.533c-14.206 31.963-25.452 59.191-35.514 82.867-9.471 23.084-11.246 24.268-31.371 15.982z"></path>
<path fill="#ab9d93" d="M652.874 516.143c-34.923-31.963-44.393-50.312-44.393-82.867 0-36.106 9.471-53.864 57.415-111.871 44.985-53.272 57.415-83.459 43.801-107.727-24.268-43.209-107.135-48.536-133.771-8.287-8.287 12.43-7.695 14.206 12.43 26.044 25.452 14.798 32.555 34.923 18.941 55.639-20.125 30.779-82.867 11.838-105.951-32.555s2.96-107.727 55.047-134.363c31.963-15.982 81.091-26.044 94.113-19.533 5.327 2.96 23.084 9.471 39.066 14.206 61.558 19.533 92.338 52.088 103.584 108.911 4.143 24.268 4.143 34.331-2.368 44.393-4.143 7.103-15.39 32.555-24.268 56.231-13.022 35.514-17.757 42.617-29.003 42.617-8.879 0-19.533 8.287-31.963 26.044-21.901 30.187-24.268 50.312-7.103 55.047 6.511 1.776 11.838 4.735 11.838 6.511 0 2.96-29.595 79.908-31.963 82.275-0.592 1.184-11.838-8.287-25.452-20.717z"></path>
</svg>
